<?xml version="1.0" encoding="utf-8"?>
<!-- Generator: Adobe Illustrator 23.0.1, SVG Export Plug-In . SVG Version: 6.00 Build 0)  -->
<svg version="1.1" id="Layer_1" xmlns="http://www.w3.org/2000/svg" xmlns:xlink="http://www.w3.org/1999/xlink" x="0px" y="0px"
	 viewBox="0 0 217 181" style="enable-background:new 0 0 217 181;" xml:space="preserve">
<style type="text/css">
	.st0{fill:none;}
	.st1{font-family:'MyriadPro-Regular';}
	.st2{font-size:12px;}
	.st3{fill:#2E3192;stroke:#FCEE21;stroke-width:9;stroke-miterlimit:10;}
	.st4{fill:#F7931E;stroke:#F15A24;stroke-miterlimit:10;}
	.st5{font-size:41px;}
	.st6{fill:#29ABE2;stroke:#FCEE21;stroke-width:8;stroke-miterlimit:10;}
	.st7{fill:#FCEE21;stroke:#2E3192;stroke-width:3;stroke-miterlimit:10;}
</style>
<rect x="32.5" y="32.5" class="st0" width="100" height="100"/>
<text transform="matrix(1 0 0 1 32.5 41.02)" class="st1 st2">NJL</text>
<rect x="16.5" y="24.5" transform="matrix(6.123234e-17 -1 1 6.123234e-17 -4 157)" class="st3" width="120" height="112"/>
<text transform="matrix(1 0 0 1 36.8569 90.1431)" class="st4 st1 st5">NJL</text>
<rect x="112.5" y="38.5" transform="matrix(6.123234e-17 -1 1 6.123234e-17 74 233)" class="st6" width="82" height="82"/>
<polygon class="st7" points="170.48,105.91 153.54,96.93 136.45,105.63 139.85,86.93 126.19,73.56 145.24,70.98 153.89,54.02 
	162.26,71.12 181.26,74.01 167.39,87.16 "/>
</svg>
